<svg height="686" width="720" xmlns="http://www.w3.org/2000/svg">
<rect height="686" fill="#555" width="720"></rect>
<text fill="#7f7" font-family="Courier New" font-size="12" xml:space="preserve">
<tspan x="10" y="26">4 megabytes installed</tspan>
<tspan x="10" y="42"></tspan>
<tspan x="10" y="58">node_modules</tspan>
<tspan x="10" y="74">└─┬ pm2-meteor@0.4.1 </tspan>
<tspan x="10" y="90">  ├─┬ abs@1.3.8 </tspan>
<tspan x="10" y="106">  │ └─┬ ul@5.2.11 </tspan>
<tspan x="10" y="122">  │   ├── deffy@2.2.2 </tspan>
<tspan x="10" y="138">  │   └─┬ typpy@2.3.8 </tspan>
<tspan x="10" y="154">  │     └─┬ function.name@1.0.8 </tspan>
<tspan x="10" y="170">  │       └── noop6@1.0.6 </tspan>
<tspan x="10" y="186">  ├── async@1.5.2 </tspan>
<tspan x="10" y="202">  ├─┬ cli@0.11.3 </tspan>
<tspan x="10" y="218">  │ ├── exit@0.1.2 </tspan>
<tspan x="10" y="234">  │ └─┬ glob@7.1.1 </tspan>
<tspan x="10" y="250">  │   ├── fs.realpath@1.0.0 </tspan>
<tspan x="10" y="266">  │   ├─┬ inflight@1.0.6 </tspan>
<tspan x="10" y="282">  │   │ └── wrappy@1.0.2 </tspan>
<tspan x="10" y="298">  │   ├── inherits@2.0.3 </tspan>
<tspan x="10" y="314">  │   ├─┬ minimatch@3.0.3 </tspan>
<tspan x="10" y="330">  │   │ └─┬ brace-expansion@1.1.7 </tspan>
<tspan x="10" y="346">  │   │   ├── balanced-match@0.4.2 </tspan>
<tspan x="10" y="362">  │   │   └── concat-map@0.0.1 </tspan>
<tspan x="10" y="378">  │   ├── once@1.4.0 </tspan>
<tspan x="10" y="394">  │   └── path-is-absolute@1.0.1 </tspan>
<tspan x="10" y="410">  ├─┬ commander@2.9.0 </tspan>
<tspan x="10" y="426">  │ └── graceful-readlink@1.0.1 </tspan>
<tspan x="10" y="442">  └─┬ nodemiral@1.1.1 </tspan>
<tspan x="10" y="458">    ├── async@0.9.0 </tspan>
<tspan x="10" y="474">    ├── colors@0.6.2 </tspan>
<tspan x="10" y="490">    ├── debug@0.7.4 </tspan>
<tspan x="10" y="506">    ├── ejs@0.8.8 </tspan>
<tspan x="10" y="522">    ├── progress@1.1.5 </tspan>
<tspan x="10" y="538">    ├─┬ ssh2@0.4.6 </tspan>
<tspan x="10" y="554">    │ ├─┬ readable-stream@1.0.34 </tspan>
<tspan x="10" y="570">    │ │ ├── core-util-is@1.0.2 </tspan>
<tspan x="10" y="586">    │ │ ├── isarray@0.0.1 </tspan>
<tspan x="10" y="602">    │ │ └── string_decoder@0.10.31 </tspan>
<tspan x="10" y="618">    │ └─┬ ssh2-streams@0.0.23 </tspan>
<tspan x="10" y="634">    │   ├── asn1@0.2.3 </tspan>
<tspan x="10" y="650">    │   └── streamsearch@0.1.2 </tspan>
<tspan x="10" y="666">    └── underscore@1.8.3</tspan>
</text>
</svg>
